<?xml version="1.0" encoding="utf-8"?>
<!-- Generator: Adobe Illustrator 19.0.0, SVG Export Plug-In . SVG Version: 6.00 Build 0)  -->
<svg version="1.0" id="Layer_1" xmlns="http://www.w3.org/2000/svg" xmlns:xlink="http://www.w3.org/1999/xlink" x="0px" y="0px"
	 viewBox="51.1 -212.1 384.2 561.3" style="enable-background:new 51.1 -212.1 384.2 561.3;" xml:space="preserve">
<style type="text/css">
	.st0{fill:#222222;}
	.st1{fill:#2979FF;}
	.st2{fill:#D8D9D9;}
	.st3{fill:#6E6E6E;}
	.st4{fill:#9B9B9B;}
	.st5{fill:url(#SVGID_1_);}
	.st6{fill:url(#SVGID_2_);}
	.st7{fill:url(#SVGID_3_);}
	.st8{fill:#FFFFFF;}
	.st9{fill:url(#SVGID_4_);}
	.st10{fill:#B0B1B2;}
	.st11{fill:url(#SVGID_5_);}
	.st12{fill:url(#SVGID_6_);}
	.st13{fill:url(#SVGID_7_);}
	.st14{fill:url(#SVGID_8_);}
	.st15{fill:#1A1A18;}
	.st16{fill:url(#SVGID_9_);}
	.st17{fill:#868685;}
	.st18{fill:#3B3A39;}
	.st19{fill:#C5C5C6;}
	.st20{fill:url(#SVGID_10_);}
	.st21{fill:#575656;}
	.st22{fill:url(#SVGID_11_);}
</style>
<g id="XMLID_1_">
	<path id="XMLID_25_" class="st0" d="M51.1,203.2h48.1v13.2H65.1v13.9h31.8v13.1H65.1v23.3h-14V203.2L51.1,203.2z"/>
	<path id="XMLID_27_" class="st0" d="M105.6,219.5h13.2v1.9c1-1.4,4.2-2.8,7.3-2.8c5,0,7.2,1.5,9.3,4.1l-6.7,10.5
		c-0.6-1.2-2.5-1.9-4.3-1.9c-2.1,0-4.5,0.9-5.5,4.9v30.5h-13.2v-47.2H105.6z"/>
	<path id="XMLID_29_" class="st0" d="M161.7,218.5c15.1,0,25.7,10.3,25.7,24.5c0,14.2-10.6,24.4-25.7,24.4
		c-14.6,0-25.5-10.3-25.5-24.4C136.2,228.8,146.6,218.5,161.7,218.5z M161.7,255.2c7.2,0,12.1-4.5,12.1-12.2
		c0-7.8-5.5-12.3-12.1-12.3s-11.9,4.5-11.9,12.3C149.8,249.9,154.6,255.2,161.7,255.2z"/>
	<path id="XMLID_32_" class="st0" d="M193.3,219.5h13.2v3.4c2.1-2.5,6.5-4.3,12.9-4.3c12.1,0,18.6,6.4,18.6,21.6v26.5h-13.2V241
		c0-7.6-3-10.2-9.3-10.2c-4.3,0-7.4,2.3-9.1,6.3v29.6h-13.2L193.3,219.5L193.3,219.5z"/>
	<path id="XMLID_34_" class="st0" d="M242.1,219.5h9v-11h13.2v11h14.4v12.3h-14.4v15.4c0,5.7,1.3,7.9,4.8,7.9c3.1,0,5.5-1.1,8.1-3.1
		l5.5,9.4c-3.3,3.5-8.4,6-14.8,6c-9.9,0-16.7-5.4-16.7-16.3v-19.3h-9L242.1,219.5L242.1,219.5z"/>
	<path id="XMLID_36_" class="st0" d="M329.9,258c-5.1,6.4-12.4,9.4-20.3,9.4c-15.3,0-25.5-9.5-25.5-24.4c0-13.8,8.5-24.5,24.5-24.5
		c12.9,0,22.5,8.5,22.5,21.7c0,1.5-0.2,4.1-0.7,7.6h-32.5c1.3,5.2,6.1,7.4,11.9,7.4c4.4,0,9.4-1.7,12.3-5.2L329.9,258z M298.1,236.5
		h19.3c-1.2-4.5-4.5-6.2-9.4-6.2C303.1,230.3,299.7,232.3,298.1,236.5z"/>
	<path id="XMLID_39_" class="st0" d="M336.9,219.5h13.2v3.4c2.1-2.5,6.5-4.3,12.9-4.3c12.1,0,18.6,6.4,18.6,21.6v26.5h-13.2V241
		c0-7.6-3-10.2-9.3-10.2c-4.3,0-7.4,2.3-9.1,6.3v29.6h-13.2L336.9,219.5L336.9,219.5z"/>
	<path id="XMLID_41_" class="st0" d="M421.2,263c-1.6,1.8-5.7,4.5-11.9,4.5c-12.9,0-22.3-8.4-22.3-24.3c0-14.6,10.5-24.7,23.1-24.7
		c6.6,0,9.5,1.3,11.1,2.3v-20.4h13.2v66.3h-13.2L421.2,263L421.2,263z M421.2,249.7v-15.3c-1.5-1.9-3.9-3.6-8.3-3.6
		c-6.7,0-12.3,4.3-12.3,12.3c0,7.6,4.8,12.2,11.4,12.2C415.6,255.2,419.7,253,421.2,249.7z"/>
</g>
<g id="XMLID_2_">
	<path id="XMLID_7_" class="st1" d="M51.1,348.3v-67.6h27.3c21.5,0,27.3,10.8,27.3,22c0,8.7-5.1,16.6-13.2,19.8l18.8,25.8H93.2
		l-16.5-23.1H66v23.1L51.1,348.3L51.1,348.3z M66,294.7v16.5h12.6c7.3,0,11.5-3.1,11.5-8.5c0-4.8-2.5-8-12.1-8
		C78.1,294.7,66,294.7,66,294.7z"/>
	<path id="XMLID_10_" class="st1" d="M115.9,304.8c4.7-4.9,12.9-7.7,22.1-7.7c12.9,0,20.6,7.6,20.6,20.8v30.4h-14v-4.5
		c-2.1,2.5-7.4,5.1-13.5,5.1c-11.1,0-18.3-6.5-18.3-16.4c0-11.6,10.8-16.5,22.8-16.5c3.5,0,7,0.5,9.1,1.3c0.1-5.1-2.7-7.1-8.1-7.1
		s-8.7,1.2-13.9,4.8L115.9,304.8z M144.6,331.1v-2.3c-1.5-0.6-4.7-1.3-7.6-1.3c-5.6,0-9.8,1.3-9.8,4.9c0,2.7,2.5,4.3,6.8,4.3
		C138.7,336.8,142.9,334.3,144.6,331.1z"/>
	<path id="XMLID_13_" class="st1" d="M214.5,335.6c-4.5,8.9-13.2,13.5-22.7,13.5c-16.2,0-27.2-10.1-27.2-26
		c0-14.9,10.8-26.1,26.5-26.1c11.9,0,19.8,5.3,23,12.5l-10.4,6.8c-3.2-4.3-6.6-6.3-11.7-6.3c-7.6,0-12.9,5.1-12.9,13
		c0,7,5.5,12.9,14.3,12.9c5.2,0,8.5-2.6,10.9-6.6L214.5,335.6z"/>
	<path id="XMLID_15_" class="st1" d="M266.6,335.6c-4.5,8.9-13.2,13.5-22.7,13.5c-16.2,0-27.2-10.1-27.2-26
		c0-14.9,10.8-26.1,26.5-26.1c11.9,0,19.8,5.3,23,12.5l-10.4,6.8c-3.2-4.3-6.6-6.3-11.7-6.3c-7.6,0-12.9,5.1-12.9,13
		c0,7,5.5,12.9,14.3,12.9c5.2,0,8.5-2.6,10.9-6.6L266.6,335.6z"/>
	<path id="XMLID_17_" class="st1" d="M295.9,297.1c16,0,27.3,10.9,27.3,26.1c0,15.1-11.3,26-27.3,26c-15.5,0-27.1-10.9-27.1-26
		C268.8,308,279.9,297.1,295.9,297.1z M295.9,336.1c7.6,0,12.8-4.8,12.8-12.9c0-8.3-5.8-13-12.8-13s-12.6,4.7-12.6,13
		C283.3,330.5,288.4,336.1,295.9,336.1z"/>
	<path id="XMLID_20_" class="st1" d="M354.2,297.1c16,0,27.3,10.9,27.3,26.1c0,15.1-11.3,26-27.3,26c-15.5,0-27.1-10.9-27.1-26
		C327.1,308,338.2,297.1,354.2,297.1z M354.2,336.1c7.6,0,12.8-4.8,12.8-12.9c0-8.3-5.8-13-12.8-13s-12.6,4.7-12.6,13
		C341.6,330.5,346.7,336.1,354.2,336.1z"/>
	<path id="XMLID_23_" class="st1" d="M387.8,298.1h14v3.6c2.2-2.7,7-4.5,13.7-4.5c12.8,0,19.8,6.9,19.8,23v28.2h-14v-27.3
		c0-8.1-3.2-10.8-9.8-10.8c-4.5,0-7.9,2.4-9.7,6.7v31.5h-14V298.1z"/>
</g>
<g>
	<path d="M219.5-177.6c-9.5,0.9-18.6,2.3-28.1,3.8c-17.4,2.8-42.4-49.1-74-36.4c-25.5,10.2-28.2,43.9-14.1,77.8
		c4,9.5,3.3,15.3-1.1,20.1C86.6-94.7,72.8-74,63.2-55.6C44.6-20,60.9,8.8,85.8,37.6c23,26.4,53.2,53.4,74.8,72
		c20.9,17.9,74.4,62.7,84.5,86.5c10.1-23.8,63.6-68.6,84.5-86.5c21.6-18.5,51.9-45.6,74.8-72c25-28.8,41.2-57.5,22.6-93.1
		c-9.6-18.4-23.3-39.2-39-56.6c-4.4-4.9-5-10.6-1.1-20.1c14-33.9,11.3-67.7-14.1-77.8c-31.6-12.7-56.6,39.3-74,36.4
		c-9.5-1.5-18.6-3-28.1-3.8C253.4-179.1,236.9-179.1,219.5-177.6z"/>
	<path class="st2" d="M244.4,87.8c-17.6,0-35.1-6-55.5-23.4c-7.7-6.6-14.3-13.8-18.6-20.6c-4.1-6.7-6-13.1-4.6-18.3
		c0.8-2.7,2.4-5.2,5.1-7.2c7.7-4.8,13.9-11.7,20.2-18.7c5.9-6.5,11.7-13,18.9-18c3.1-2.2,5.6-2.9,7.7-2.6c1.7,0.3,3.2,1.3,4.2,2.9
		c1.2,1.7,2,4,2.5,6.5c4.5,23-16.5,43.9-16.5,60.4c0,2.3,0.6,4.4,1.6,6.4c-0.1,0.9-0.2,1.7-0.2,2.6c0,0.2,0,0.5,0,0.7
		c-4.1-2.4-7.9-5.2-11.3-8.1c-1-1-2-2-3.1-2.8c-0.9-0.9-1.8-1.8-2.7-2.8c-5.7-6.4-13.1-17.7-5.2-25.3c-10.4,5.6-2.6,21,3,27.3
		c2.1,2.3,4.3,4.5,6.6,6.5c4.7,4.1,9.5,7.6,14.1,10.5c0.3,0.7,0.7,1.2,1.1,1.8c1.8,2.5,4.5,4.9,7.7,6.8c3.8,2.5,7.8,4.2,11.8,5.3
		c4.2,1.2,8.6,1.8,12.9,1.8c0.2,0,0.5,0,0.7,0l0,0h0l0,0h0l0,0c0.2,0,0.5,0,0.7,0c4.3,0,8.6-0.6,12.9-1.8c4-1.1,8-2.9,11.8-5.3
		c3.1-2,5.7-4.3,7.7-6.8c0.5-0.6,0.8-1.2,1.1-1.8c4.7-2.9,9.4-6.4,14.1-10.5c2.3-2,4.5-4.2,6.6-6.5c5.6-6.3,13.4-21.6,3-27.3
		c8,7.5,0.6,18.9-5.2,25.3c-0.9,0.9-1.7,1.9-2.7,2.8c-1.1,0.9-2.1,1.8-3.1,2.8c-3.4,2.9-7.2,5.7-11.3,8.1c0-0.2,0-0.5,0-0.7
		c0-0.9,0-1.7-0.2-2.6c1-2,1.6-4.1,1.6-6.4c0-16.5-21-37.4-16.5-60.4c0.5-2.5,1.4-4.8,2.5-6.5c1.1-1.6,2.5-2.6,4.2-2.9
		c2-0.3,4.5,0.5,7.7,2.6c7.2,5,13.1,11.5,18.9,18c6.3,7,12.5,13.9,20.2,18.7c2.7,2,4.4,4.5,5.1,7.2c1.4,5.2-0.5,11.6-4.6,18.3
		c-4.2,6.9-10.8,14-18.6,20.6c-20.4,17.4-37.9,23.4-55.5,23.4c-0.3,0-0.5,0-0.8,0l0,0C244.9,87.8,244.7,87.8,244.4,87.8z"/>
	<path class="st3" d="M208.7,43.3c-0.5,1.9-0.7,3.8-0.7,5.6c0,2.3,0.5,4.4,1.6,6.4c-0.1,0.9-0.2,1.7-0.2,2.6c0,0.2,0,0.5,0,0.7
		c-4.1-2.4-7.9-5.2-11.3-8.1c-1-1-2-2-3.1-2.8c-0.9-0.9-1.8-1.8-2.7-2.8c-3.8-4.3-8.4-10.7-8.6-16.9
		C189.1,36.7,197.8,41.5,208.7,43.3L208.7,43.3z M281.7,43.3c0.5,1.9,0.7,3.8,0.7,5.6c0,2.3-0.5,4.4-1.6,6.4
		c0.1,0.9,0.2,1.7,0.2,2.6c0,0.2,0,0.5,0,0.7c4.1-2.4,7.9-5.2,11.3-8.1c1-1,2-2,3.1-2.8c0.9-0.9,1.8-1.8,2.7-2.8
		c3.8-4.3,8.4-10.7,8.6-16.9C301.1,36.7,292.4,41.5,281.7,43.3z"/>
	<path class="st4" d="M188.9,64.4c-7.7-6.6-14.3-13.8-18.6-20.6c-1.3-2-2.3-4.1-3.2-6.1c5.2,6.7,10.4,4.7,15.3-6.1
		c1.1,5.7,4.7,11.9,7.8,15.3c2.1,2.3,4.3,4.5,6.6,6.5c4.7,4.1,9.4,7.6,14.1,10.5c0.3,0.7,0.7,1.2,1.1,1.8c1.8,2.5,4.5,4.9,7.7,6.8
		c3.8,2.5,7.8,4.2,11.8,5.3c4.8,1.4,8.7,1.7,13.6,1.8c4.6,0,9.2-0.5,13.6-1.8c4-1.1,8-2.9,11.8-5.3c3.1-2,5.7-4.3,7.7-6.8
		c0.5-0.6,0.8-1.2,1.1-1.8c4.7-2.9,9.4-6.4,14.1-10.5c2.3-2,4.5-4.2,6.6-6.5c3-3.4,6.8-9.5,7.8-15.3c4.9,10.9,10,12.9,15.3,6.1
		c-0.8,2-1.9,4-3.2,6.1c-4.2,6.9-10.8,14-18.6,20.6c-16.6,14.1-34.3,23.5-56.3,23.4C222.9,87.7,205.7,78.7,188.9,64.4z"/>
	<linearGradient id="SVGID_1_" gradientUnits="userSpaceOnUse" x1="244.8794" y1="76.187" x2="245.6727" y2="30.7417">
		<stop  offset="0" style="stop-color:#000000"/>
		<stop  offset="1" style="stop-color:#3B3A39"/>
	</linearGradient>
	<path class="st5" d="M220.4,71.2c-5.6-3.6-9.7-8.2-9.7-13.4c0-2.3,0.5-4.7,1.2-7.1c0,0.3,0,0.6,0,0.9c0,6.9,2.8,13.2,8.3,17.2
		c4.6,3.3,12,3.2,11.2-4.1c-0.6-5.4-3.9-13.9-10.4-9c-0.5,0.3-0.9,0.7-1.2,0.9c-0.9-2.5-1.2-5.5-1.2-8.4
		c-0.2-14.6,14.7-20.1,26.6-19.9c11.9,0.1,26.8,5,26.6,19.9c0,3-0.4,6-1.2,8.4c-0.4-0.2-0.8-0.5-1.2-0.9c-6.5-4.9-9.8,3.6-10.4,9
		c-0.8,7.3,6.6,7.4,11.2,4.1c5.5-4,8.3-10.3,8.3-17.2c0-0.3,0-0.6,0-0.9c0.8,2.5,1.2,4.8,1.2,7.1c0,5.2-4.1,9.9-9.7,13.4
		c-7.5,4.7-15.9,7-24.7,6.9C236.1,78.1,228.2,76.1,220.4,71.2z"/>
	<linearGradient id="SVGID_2_" gradientUnits="userSpaceOnUse" x1="241.8007" y1="-273.6356" x2="246.2348" y2="-19.6103">
		<stop  offset="0" style="stop-color:#868685"/>
		<stop  offset="1" style="stop-color:#575656"/>
	</linearGradient>
	<path class="st6" d="M219.7-174.7c-9.4,0.8-16.4,1.8-25.7,3.5c-7.9,1.4,1.6,4.5,3.5,5.4c-20.9,2.6-51.9-52.9-79-40.6
		c-25.3,11.5-20.4,48.7-10.3,72c5.6,13,5.2,21.6-0.5,27.8C108.5-120.4,84.2-84,81.5-80c17.6-6.9,37-7.7,54.7-8.4
		c18.5-0.8,35.3-1.4,46-9c17.3-12.2,29.3-17.8,37.6-18.9c9.2-1.5,16.3-6.4,25.4-6.6c9.1-0.2,17,5.2,25.4,6.6
		c8.2,1,20.4,6.5,37.6,18.9c10.8,7.7,27.5,8.3,46,9c17.7,0.7,37,1.5,54.7,8.4c-2.8-4-27-40.4-26.3-26.6c-5.6-6.2-6.1-14.8-0.5-27.7
		c10.1-23.2,14.9-60.5-10.4-72c-27.1-12.3-58.1,43.2-79,40.6c1.9-0.8,11.4-3.9,3.5-5.4c-9.4-1.7-16.4-2.7-25.7-3.5
		C253.8-176.1,236.5-176.1,219.7-174.7z"/>
	<linearGradient id="SVGID_3_" gradientUnits="userSpaceOnUse" x1="245.2517" y1="-2893.1018" x2="245.2517" y2="3050.9561">
		<stop  offset="0" style="stop-color:#ECECEC"/>
		<stop  offset="1" style="stop-color:#9B9B9B"/>
	</linearGradient>
	<path class="st7" d="M219.7-174.7c-9.4,0.8-16.4,1.8-25.7,3.5c-5.8,1-2.2,3,0.9,4.3c-1.4-1.7,1.3-3.2,4.7-4
		c14.7-2.9,30.2-3.8,45.4-3.8l0,0h0.5l0,0c15.2,0,30.7,0.9,45.4,3.8c3.4,0.7,6,2.3,4.7,4c3.1-1.3,6.7-3.2,0.9-4.3
		c-9.4-1.7-16.4-2.7-25.7-3.5C253.8-176.1,236.5-176.1,219.7-174.7L219.7-174.7z M196.4-165.8c-1.8,0.7-3.7,1.1-5.6,1.3
		c-21.4-3.7-48.7-45.7-69.2-35.6c-26.9,13.3-11.5,58.5-2,75.8l-2.2,1.5c-0.9,0.5-1.6,1.1-2.4,1.5c-0.6,0.4-1,1-1.1,1.8
		c0,0.3,0,0.7,0,0.9c0,0.2,0,0.4,0.1,0.6c-0.7,0.5-1.4,0.8-2,0.8c0.3-4.7-1-10.3-4-17.2c-10-23.3-14.9-60.6,10.4-72
		C145.1-218.5,175.5-165.2,196.4-165.8L196.4-165.8z M378.2-117.1c-0.7,0-1.5-0.1-2.2-0.5c0.2-0.3,0.3-0.7,0.3-1c0-0.3,0-0.6,0-0.9
		c-0.1-0.7-0.5-1.4-1.1-1.8c-1.3-0.8-2.9-1.8-4.5-3c9.5-17.2,25-62.6-1.9-75.8c-20.3-10-47.3,31.1-68.6,35.5
		c-2.1-0.2-4.2-0.6-6.2-1.2c20.9,0.7,51.2-52.7,78-40.6c25.3,11.5,20.4,48.7,10.4,72C379.2-127.5,377.9-121.8,378.2-117.1z"/>
	<path class="st8" d="M100.4-163.5c1.5,5.2,3.6-2,4.5-10.9c1.6-16.6,7.7-23.3,14.2-27.7c11.7-7.9,32.7,6.3,47.3,17.7
		c-15.6-13.8-32.4-29.1-47.9-22.1C102.4-199.1,98.5-181.4,100.4-163.5L100.4-163.5z M389.9-163.5c-1.5,5.2-3.6-2-4.5-10.9
		c-1.6-16.6-7.7-23.3-14.2-27.7c-11.7-7.9-32.7,6.3-47.3,17.7c15.5-13.8,32.3-29.1,47.9-22C387.9-199.1,391.8-181.4,389.9-163.5z"/>
	<path class="st8" d="M228.1,64.6c0,0.2,0.1,0.3,0.1,0.5c0.5,4.5-4.4,3.1-6.8,1.4c-5.4-3.8-7.3-9.7-7-16c0.3,5.4,2.3,10.4,7,13.8
		C223.5,65.7,227.3,66.9,228.1,64.6L228.1,64.6z M262.2,64.6c0,0.2-0.1,0.3-0.1,0.5c-0.5,4.5,4.4,3.1,6.8,1.4c5.4-3.8,7.3-9.7,7-16
		c-0.3,5.4-2.3,10.4-7,13.8C266.8,65.7,263,66.9,262.2,64.6L262.2,64.6z M245.9,49.8c-0.2,0-0.5,0-0.7,0l0,0h0l0,0h0l0,0
		c-0.2,0-0.5,0-0.7,0c-12.1,0-21.9-4-21.9-2.3c0,1.6,9.8,7.4,21.9,7.4c0.3,0,0.5,0,0.8,0l0,0c0.3,0,0.5,0,0.8,0
		c12.1,0,21.9-5.8,21.9-7.4C267.8,45.9,258,49.8,245.9,49.8z"/>
	<path d="M146.1-136.9C146.1-136.9,146.1-137,146.1-136.9S146.1-136.8,146.1-136.9z"/>
	<path d="M168.9-152.1c0,0,0,0-0.1,0H168.9L168.9-152.1z"/>
	<path d="M169-160.6L169-160.6L169-160.6z"/>
	<path d="M119.6-124.2c-9.5-17.2-25-62.6,1.9-75.8c22.1-10.9,52.5,39.3,74.5,35.7c-3.2,5.2-12.5,4.6-16.3,4.2
		c-4.7-0.5-13.4-3.6-9.6,2.9c6.5,11-10.2,8.7-16,9.8c-5,0.9-10,2.1-14.9,3.4c1.7,0.2,3.2,0.7,4.4,1.3c1.8,0.9,3.2,2,4,3.1
		c0.9,1.1,1.4,2.2,1.4,3c-0.1,1.3-1,2-2.9,2.2c-6.3,0.3-15.8,6.8-23.2,11.7c-1.9,1.3-3.7,2.5-5.3,3.5c1,0.2,1.8,0.5,2.6,0.7
		c1.1,0.4,2.2,0.8,3.4,1.2c0.9,0.4,1.6,0.9,2.2,1.4c0.5,0.5,0.7,1,0.8,1.6c0.1,0.7,0,1.3-0.5,1.9c-0.3,0.5-0.8,0.8-1.5,1.1
		c-4.1,1.9-6.1,5-8,7.9c-2,3.2-7.5,8.6-13.4,6.4c6.4-0.9,8.7-4.4,11-8c2.1-3.3,4.3-6.7,9.2-8.9l0.2-0.1c-0.2-0.2-0.5-0.4-0.9-0.5
		c-1.1-0.5-2.1-0.9-3.1-1.2c-1-0.3-2.1-0.6-3.6-0.8c-0.6-0.1-1-0.5-1.3-0.9c-0.2-0.3-0.3-0.7-0.3-1c0-0.3,0-0.6,0-0.9
		c0.1-0.7,0.5-1.4,1.1-1.8C116.4-122,118-123.1,119.6-124.2z"/>
	<linearGradient id="SVGID_4_" gradientUnits="userSpaceOnUse" x1="167.5201" y1="-129.7434" x2="122.3201" y2="-185.5607">
		<stop  offset="0" style="stop-color:#000000"/>
		<stop  offset="1" style="stop-color:#3B3A39"/>
	</linearGradient>
	<path class="st9" d="M188.4-162.6c-27.7-6.8-48.7-44.7-67.7-32.7c-17.1,10.7-11.3,43.8,2.1,68.8c7.5-5,16.1-10.7,23-11.1l-0.3-0.5
		c-0.6-0.8-1.6-1.6-3-2.3c-1.2-0.5-2.6-1-4.2-1.1c-3.2-0.3-3.8-4.6,0.1-5.6c5-1.2,10.2-2.5,15.4-3.5c9.7-1.8,18.3,1.9,14.1-5.4
		c-2.5-4.3-0.2-9.6,3.3-8.8C177.1-163.1,182.9-162.2,188.4-162.6z"/>
	<path class="st2" d="M232.8-104.7L232.8-104.7v-0.1c-1.3-5.9-5-9.4-12.7-8.5c-7.8,1-19.5,6.4-36.3,18.3
		c-11.4,8.2-28.5,8.8-47.5,9.6c-32.8,1.3-56.6,5.9-64.9,22.1C64.9-50.8,66.2-29.1,89-3.3c4.5,5,4.5,2.8,4.8-1.4
		c0.5-6.5,3.6-14.2,10.4-23.3c10-13.2,23-23.9,38.8-31.3c15-7.1,32.5-11.2,52.1-11.5c6-0.1,4.5-4.5,3.2-9.5c-0.5-2-1.2-4-2.2-6
		c-3.5-7.4,1-8.7,6.3-3.2c3.7,3.8,6.5,8.2,9.1,13.1c2.5,4.8,4.7,10.2,7,16.2c2.5,6.3,2.7,7,5.2,0.7c4.7-11.8,9.6-27.6,9.5-39.2
		C233.3-101,233.1-103,232.8-104.7L232.8-104.7z M257.6-104.7L257.6-104.7v-0.1c1.3-5.9,5-9.4,12.7-8.5c7.8,1,19.5,6.4,36.3,18.3
		c11.4,8.2,28.5,8.8,47.5,9.6c32.8,1.3,56.6,5.9,64.9,22.1c6.5,12.6,5.2,34.3-17.6,60.1c-4.5,5-4.5,2.8-4.8-1.4
		c-0.5-6.5-3.6-14.2-10.4-23.3c-10-13.2-23-23.9-38.8-31.3c-15-7.1-32.5-11.2-52.1-11.5c-6-0.1-4.5-4.5-3.2-9.5c0.5-2,1.2-4,2.2-6
		c3.5-7.4-1-8.7-6.3-3.2c-3.7,3.8-6.5,8.2-9.1,13.1c-2.5,4.8-4.7,10.2-7,16.2c-2.5,6.3-2.7,7-5.2,0.7c-4.7-11.8-9.6-27.6-9.5-39.2
		C256.9-101,257.2-103,257.6-104.7z"/>
	<path class="st10" d="M68-51c5.9,15.8,15.2,30.4,27.9,37.3c-1.2,3.2-2,6.2-2.1,9c-0.3,4.1-0.3,6.5-4.8,1.4C72.4-22,67.2-38.5,68-51
		L68-51z M422.3-51c-5.9,15.8-15.2,30.4-27.9,37.3c1.2,3.2,2,6.2,2.1,9c0.3,4.1,0.3,6.5,4.8,1.4C417.9-22,423.1-38.5,422.3-51z"/>
	<linearGradient id="SVGID_5_" gradientUnits="userSpaceOnUse" x1="245.3029" y1="-121.3535" x2="245.3029" y2="42.9296">
		<stop  offset="0" style="stop-color:#3B3A39"/>
		<stop  offset="1" style="stop-color:#000000"/>
	</linearGradient>
	<path class="st11" d="M254.7-105.1c-0.4,1.9-0.6,3.9-0.6,6.1c-0.1,12,4.9,28.3,9.7,40.4c3.7,9.4,7.2,7.7,10.5-0.7
		c2.3-5.9,4.5-11.2,6.9-15.9c2.4-4.7,5.1-8.8,8.6-12.4c1.5-1.6,3.5-3.8,1.8-0.2c-1,2.2-1.8,4.3-2.4,6.5c-1.7,6.7-2.7,13.1,6,13.2
		c19.2,0.4,36.3,4.3,50.9,11.3c15.3,7.2,28.1,17.6,37.8,30.5c6.5,8.5,9.4,15.7,9.8,21.6c0.5,6-1.7,10.9-5.5,14.7
		c-3.9,4-9.6,6.8-15.9,8.8c-13.8,4.3-30.8,4.3-40.9,1.4c-12.6-3.6-21.2-13.1-30-22.8c-6-6.5-12-13.2-19.4-18.4
		c-9.2-6.5-16.6-2.7-18.8,8.7c-4.9,20.4,11.3,39.2,11.2,48.4c0,3.2-4.9-5.5-12.2-9c-5.7-2.8-28-2.8-33.7,0
		c-7.3,3.5-12.2,12.2-12.2,9c-0.1-9.2,16-28,11.2-48.4c-2.2-11.3-9.5-15.1-18.8-8.7c-7.5,5.2-13.5,11.9-19.4,18.4
		c-8.8,9.7-17.4,19.2-30,22.8c-10.1,2.9-27.1,2.9-40.9-1.4c-6.4-2-12-4.9-15.9-8.8c-3.8-3.8-6-8.7-5.5-14.7c0.5-6,3.4-13.2,9.8-21.6
		c9.7-12.9,22.4-23.2,37.8-30.5c14.7-6.9,31.8-10.9,50.9-11.3c8.7-0.2,7.7-6.6,6-13.2c-0.5-2.2-1.4-4.4-2.4-6.5
		c-1.7-3.7,0.3-1.4,1.8,0.2c3.5,3.6,6.2,7.7,8.6,12.4c2.5,4.7,4.6,10,6.9,15.9c3.3,8.3,6.8,10.1,10.5,0.7
		c4.7-12.1,9.8-28.3,9.7-40.4c0-2.2-0.2-4.2-0.6-6.1c0.2-7,2.3-14.9,9.6-14.9C252.5-119.9,254.6-112.1,254.7-105.1z"/>
	<linearGradient id="SVGID_6_" gradientUnits="userSpaceOnUse" x1="244.7308" y1="61.8459" x2="248.0845" y2="-130.2862">
		<stop  offset="0" style="stop-color:#6E6E6E"/>
		<stop  offset="1" style="stop-color:#1A1A18"/>
	</linearGradient>
	<path class="st12" d="M264.1-16.1c-0.5,1.2-0.8,2.5-1.1,4c-4.9,20.4,11.3,39.2,11.2,48.4c0,3.2-4.9-5.5-12.2-9
		c-5.7-2.8-28-2.8-33.7,0c-7.3,3.5-12.2,12.2-12.2,9c-0.1-9.2,16-28,11.2-48.4c-0.2-1.2-0.5-2.3-0.9-3.4
		c1.8-44.7,10.2-90.5,18.8-90.5C253.6-106.1,262.1-60.8,264.1-16.1z"/>
	<path d="M344.2-136.9C344.2-136.9,344.2-137,344.2-136.9S344.2-136.8,344.2-136.9z"/>
	<path d="M321.4-152.1c0,0,0,0,0.1,0H321.4L321.4-152.1z"/>
	<path d="M321.3-160.6L321.3-160.6L321.3-160.6z"/>
	<path d="M370.7-124.2c9.5-17.2,25-62.6-1.9-75.8c-22.1-10.9-52.4,39.3-74.5,35.7c3.2,5.2,12.5,4.6,16.3,4.2
		c4.7-0.5,13.4-3.6,9.6,2.9c-6.5,11,10.2,8.7,16,9.8c5,0.9,10,2.1,14.9,3.4c-1.7,0.2-3.2,0.7-4.4,1.3c-1.8,0.9-3.2,2-4,3.1
		c-0.9,1.1-1.4,2.2-1.4,3c0.1,1.3,1,2,2.9,2.2c6.3,0.3,15.8,6.8,23.2,11.7c1.9,1.3,3.7,2.5,5.3,3.5c-1,0.2-1.8,0.5-2.6,0.7
		c-1.1,0.4-2.2,0.8-3.4,1.2c-0.9,0.4-1.6,0.9-2.2,1.4c-0.5,0.5-0.7,1-0.8,1.6c-0.1,0.7,0,1.3,0.5,1.9c0.3,0.5,0.8,0.8,1.5,1.1
		c4.1,1.9,6.1,5,8,7.9c2,3.2,7.5,8.6,13.4,6.4c-6.3-0.8-8.6-4.3-10.9-7.9c-2.1-3.3-4.3-6.7-9.2-8.9l-0.2-0.1
		c0.2-0.2,0.5-0.4,0.9-0.5c1.1-0.5,2.1-0.9,3.1-1.2c1-0.3,2.1-0.6,3.6-0.8c0.6-0.1,1-0.5,1.3-0.9c0.2-0.3,0.3-0.7,0.3-1
		c0-0.3,0-0.6,0-0.9c-0.1-0.7-0.5-1.4-1.1-1.8C373.9-122,372.4-123.1,370.7-124.2z"/>
	<linearGradient id="SVGID_7_" gradientUnits="userSpaceOnUse" x1="335.7323" y1="-145.6711" x2="382.3008" y2="-201.1692">
		<stop  offset="0" style="stop-color:#000000"/>
		<stop  offset="1" style="stop-color:#3B3A39"/>
	</linearGradient>
	<path class="st13" d="M301.9-162.6c27.7-6.8,48.7-44.7,67.7-32.7c17.1,10.7,11.3,43.8-2.1,68.8c-7.5-5-16.1-10.7-23-11.1l0.3-0.5
		c0.6-0.8,1.6-1.6,3-2.3c1.2-0.5,2.6-1,4.2-1.1c3.2-0.3,3.8-4.6-0.1-5.6c-5-1.2-10.2-2.5-15.4-3.5c-9.7-1.8-18.3,1.9-14.1-5.4
		c2.5-4.3,0.2-9.6-3.3-8.8C313.3-163.1,307.4-162.2,301.9-162.6z"/>
	<linearGradient id="SVGID_8_" gradientUnits="userSpaceOnUse" x1="241.8955" y1="219.9618" x2="245.623" y2="6.4077">
		<stop  offset="0" style="stop-color:#6E6E6E"/>
		<stop  offset="1" style="stop-color:#3B3A39"/>
	</linearGradient>
	<path class="st14" d="M245.2,188.5c-11-23.3-61.1-63.6-81.8-82.2c-26.6-22.9-53.2-45.8-72-68.6c11.8,6.7,26.2,11,41.2,15.6
		c23.4,7.1,48.4,14.6,67.4,32.1c6.6,6.1,13.8,10.7,21.1,13.9c7.7,3.3,14.7,5,21.8,5v0c0.5,0,1,0,1.5,0c0.2,0,0.5,0,0.7,0l0,0h0l0,0
		h0l0,0c0.2,0,0.5,0,0.7,0c0.5,0,1,0,1.5,0v0c7-0.1,14.1-1.8,21.8-5c7.4-3.2,14.4-7.8,21.1-13.9c19.1-17.5,44-25.1,67.4-32.1
		c15-4.5,29.3-8.9,41.2-15.6c-18.7,22.8-45.3,45.7-71.9,68.6C306.1,124.1,256.1,165.3,245.2,188.5z"/>
	<path class="st15" d="M245.9,116.9c-0.2,0-0.5,0-0.7,0l0,0h0l0,0l0,0l0,0h0l0,0c-0.2,0-0.5,0-0.7,0c-7.2,0.2-14.5-1.4-22.1-4.7
		c-7-3-13.9-7.5-20.3-13.4c-19.5-17.9-44.9-25.6-68.5-32.8c-7.8-2.4-15.4-4.7-22.6-7.2c-7-7-13.6-14.1-19.4-21.1
		c11.8,6.7,26.2,11,41.2,15.6c23.4,7.1,48.4,14.6,67.4,32.1c6.6,6.1,13.8,10.7,21.1,13.9c7.7,3.3,14.7,5,21.8,5v0c0.5,0,1,0,1.5,0
		c0.2,0,0.5,0,0.7,0l0,0h0l0,0h0l0,0c0.2,0,0.5,0,0.7,0c0.5,0,1,0,1.5,0v0c7-0.1,14.1-1.8,21.8-5c7.4-3.2,14.4-7.8,21.1-13.9
		c19.1-17.5,44-25.1,67.4-32.1c15-4.5,29.3-8.9,41.2-15.6c-5.8,7-12.4,14.1-19.4,21.1c-7.2,2.6-14.8,4.9-22.6,7.2
		c-23.7,7.2-49,14.9-68.5,32.8c-6.4,5.9-13.2,10.3-20.3,13.4C260.4,115.4,253.2,117,245.9,116.9z"/>
	<linearGradient id="SVGID_9_" gradientUnits="userSpaceOnUse" x1="244.4929" y1="14.7806" x2="247.6436" y2="195.2841">
		<stop  offset="0" style="stop-color:#B0B1B2"/>
		<stop  offset="1" style="stop-color:#FFFFFF"/>
	</linearGradient>
	<path class="st16" d="M245.2,172c-10.9-23.2-61-64.3-81.8-82.2c-16.1-13.8-32.2-27.7-46.5-41.5c5.1,1.7,10.4,3.2,15.7,4.9
		c23.4,7.1,48.4,14.6,67.4,32.1c6.6,6.1,13.8,10.7,21.1,13.9c7.7,3.3,14.7,5,21.8,5v0c0.5,0,1,0,1.5,0c0.2,0,0.5,0,0.7,0l0,0h0l0,0
		h0l0,0c0.2,0,0.5,0,0.7,0c0.5,0,1,0,1.5,0v0c7-0.1,14.1-1.8,21.8-5c7.4-3.2,14.4-7.8,21.1-13.9c19.1-17.5,44-25.1,67.4-32.1
		c5.4-1.6,10.6-3.2,15.7-4.9c-14.4,13.8-30.4,27.6-46.5,41.5C306.1,107.7,256.1,148.9,245.2,172z"/>
	<path class="st17" d="M245.2,116.9L245.2,116.9c-8.4,0-15.2-1.4-23-4.7c-7-3-13.9-7.5-20.3-13.4C183.5,82,160,74.2,137.6,67.4
		c-7.2-6.3-14.1-12.7-20.7-19.1c5.1,1.7,10.4,3.2,15.7,4.9c23.4,7.1,48.4,14.6,67.4,32.1c6.6,6.1,13.8,10.7,21.1,13.9
		c9,3.9,14.9,5,24.1,5l0,0c8.8,0,15.7-1.5,24.1-5c7.4-3.2,14.4-7.8,21.1-13.9c19.1-17.5,44-25.1,67.4-32.1
		c5.4-1.6,10.6-3.2,15.7-4.9C367,54.6,360,61,352.8,67.4c-22.4,6.8-46,14.6-64.3,31.5c-6.4,5.9-13.2,10.3-20.3,13.4
		C260.3,115.5,253.5,116.9,245.2,116.9z"/>
	<path class="st18" d="M245.9,101.2c-8.4,0-15.9-1.4-23.7-4.7c-7-3-13.9-7.5-20.3-13.4c-19.5-17.9-44.9-25.6-68.5-32.8
		c-18.9-5.7-36.9-11.2-49.6-21.2c-14.4-15.4-25-33.4-24.6-51.9c-0.2-6.8,1.1-15.2,3.4-21.2c6.8,27,28.6,56.3,54.6,65.8
		c10.1,3.2,21.7,3.8,31.5,3.2c9-0.5,11.8,0,14.7,10.8c0.8,3.1,2.5,6.2,4.4,9.4c4.4,7.2,11.2,14.6,19.2,21.3
		c18,15.3,34.3,24.2,58.1,24.2l0,0c23.7,0,40.1-8.9,58.1-24.2c8-6.8,14.7-14.2,19.2-21.3c2-3.2,3.6-6.3,4.4-9.4
		c2.9-10.9,5.7-11.3,14.7-10.8c9.7,0.6,21.4-0.1,31.5-3.2c26.1-9.7,47.9-38.9,54.6-65.8c2.3,6,3.6,14.4,3.4,21.2
		c0.5,18.6-10.1,36.5-24.6,51.9c-12.7,10.1-30.6,15.5-49.6,21.2c-23.7,7.2-49,14.9-68.5,32.8c-6.4,5.9-13.2,10.4-20.3,13.4
		C260.4,99.7,253.2,101.2,245.9,101.2z"/>
	<path class="st8" d="M333-84.5c14.1,1.8,20.8,1.7,36.7,2.2c8.6,0.3,15.8,0.9,25.5,3.7c12.2,3.6,22.6,15.6,11.4,12.4
		c-6.5-1.8-15.3-5.5-13.8,4.9c-15,3.2-51.8-17.7-67.2-20.1C323.1-81.7,324.5-85.7,333-84.5L333-84.5z M157.3-84.5
		c-14.1,1.8-20.8,1.7-36.7,2.2c-8.6,0.3-15.8,0.9-25.5,3.7C83-75,72.6-63,83.8-66.1c6.5-1.8,15.3-5.5,13.8,4.9
		c15,3.2,51.8-17.7,67.2-20.1C167.2-81.7,165.8-85.7,157.3-84.5L157.3-84.5z M204.4,6.9c-6.9,3.2-17.6,11-7.2,17.5
		c6.3,3.9,15.1,2.9,17.4-4.7c2.5-8.6,7.6-14.9,7.2-25.3C221.3-14.2,216.2,1.4,204.4,6.9L204.4,6.9z M226.9-108.9
		c-2.5-5.6-31.6,3.5-28.9,9.2c1.8,3.7,8.1,3,12.4,5.4c5.1,2.9,8.2,8.5,12.4,6.8C228.6-89.7,231-99.5,226.9-108.9L226.9-108.9z
		 M178-88.7c-3.7,5.2,11.2,7.7,11.7-0.5c0.3-4.2,4.3-6.6,2-7.7c-1.4-0.7-4.3,2.9-7.5,5.2C181.6-90,178.5-89.5,178-88.7L178-88.7z
		 M286,6.9c6.9,3.2,17.6,11,7.2,17.5c-6.3,3.9-15.1,2.9-17.4-4.7c-2.5-8.6-7.6-14.9-7.2-25.3C269.1-14.2,274.1,1.4,286,6.9L286,6.9z
		 M263.4-108.9c2.5-5.6,31.6,3.5,28.9,9.2c-1.8,3.7-8.2,3-12.4,5.4c-5,2.9-8.2,8.5-12.4,6.8C261.7-89.7,259.3-99.5,263.4-108.9
		L263.4-108.9z M312.3-88.7c3.7,5.2-11.2,7.7-11.7-0.5c-0.3-4.2-4.3-6.6-2-7.7c1.4-0.7,4.3,2.9,7.5,5.2
		C308.7-90,311.8-89.5,312.3-88.7z"/>
	<path class="st19" d="M245.9,80.8c-0.5,0-1,0-1.5,0c-13.2,0-23.8-5.2-23.8-3.4s10.7,8.6,23.8,8.6c0.5,0,1,0,1.5,0
		c13.2,0,23.8-6.8,23.8-8.6S259.1,80.8,245.9,80.8z"/>
	<path class="st18" d="M112.7-99.5c9.4-2.1,16.5-10.2,25.7-9.9c14.4,0.6,0-11,4.5-14.4c8.9-6.6,34.7-2.2,31.6-11.1
		c-5.2-15.3,21.7-7.9,12.3-17.4c-1.8-1.8,23.7-3.8,29.6-6.9c3.3-1.7,4.3-3.4-0.4-1.9c-5.6,1.8-17.7,1.6-27.3,0.8c-3.4,0.6-7,0.3-9,0
		c-4.7-0.5-13.4-3.6-9.6,2.9c6.5,11-10.2,8.7-16,9.8c-5,0.9-10,2.1-14.9,3.4c1.7,0.2,3.2,0.7,4.4,1.3c1.8,0.9,3.2,2,4,3.1
		c0.9,1.1,1.4,2.2,1.4,3c-0.1,1.3-1,2-2.9,2.2c-6.3,0.3-15.8,6.8-23.2,11.7c-1.9,1.3-3.7,2.5-5.3,3.5c1,0.2,1.8,0.5,2.6,0.7
		c1.1,0.4,2.2,0.8,3.4,1.2c0.9,0.4,1.6,0.9,2.2,1.4c0.5,0.5,0.7,1,0.8,1.6c0.1,0.7,0,1.3-0.5,1.9c-0.3,0.5-0.8,0.8-1.5,1.1
		c-4.2,2-6.1,5-8,8C115.5-102.3,114.3-100.8,112.7-99.5L112.7-99.5z M377.6-99.5c-9.4-2.1-16.5-10.2-25.7-9.9
		c-14.4,0.6,0-11-4.5-14.4c-8.9-6.6-34.7-2.2-31.6-11.1c5.2-15.3-21.7-7.9-12.3-17.4c1.8-1.8-23.7-3.8-29.6-6.9
		c-3.3-1.7-4.3-3.4,0.4-1.9c5.6,1.8,17.7,1.6,27.3,0.8c3.4,0.6,7,0.3,9,0c4.7-0.5,13.4-3.6,9.6,2.9c-6.5,11,10.2,8.7,16,9.8
		c5,0.9,10,2.1,14.9,3.4c-1.7,0.2-3.2,0.7-4.4,1.3c-1.8,0.9-3.2,2-4,3.1c-0.9,1.1-1.4,2.2-1.4,3c0.1,1.3,1,2,2.9,2.2
		c6.3,0.3,15.8,6.8,23.2,11.7c1.9,1.3,3.7,2.5,5.3,3.5c-1,0.2-1.8,0.5-2.6,0.7c-1.1,0.4-2.2,0.8-3.4,1.2c-0.9,0.4-1.6,0.9-2.2,1.4
		c-0.5,0.5-0.7,1-0.8,1.6c-0.1,0.7,0,1.3,0.5,1.9c0.3,0.5,0.8,0.8,1.5,1.1c4.1,1.9,6.1,5,8,7.9C374.8-102.3,376-100.8,377.6-99.5z"
		/>
	<path class="st3" d="M232.8-130.6c-6.9,1.2-11.9,5.6-12.1,7.4c-9.4,6.2-18.4,4.4-24.8,8.3c-3.7,2.2-12.8,6.3-15.6,9.9
		c0,0-21.6,12-18.9,0.5c1-4.1,16-4.7,6-12.4c-2.5-1.8,5.9-7.4,18.1-7.6c19.4-0.3,27.6-1.2,28.9-11c0.3-2.3,23.3-13.1,18-5.1
		c-2,2.9-3.5,6,2.3,5.4C241.1-136,238.8-131.7,232.8-130.6L232.8-130.6z M257.4-130.6c6.9,1.2,11.9,5.6,12.1,7.4
		c9.4,6.2,18.4,4.4,24.8,8.3c3.7,2.2,12.8,6.3,15.6,9.9c0,0,21.6,12,18.9,0.5c-1-4.1-16-4.7-6-12.4c2.5-1.8-5.9-7.4-18.1-7.6
		c-19.4-0.3-27.6-1.2-28.9-11c-0.3-2.3-23.3-13.1-18-5.1c2,2.9,3.5,6-2.3,5.4C249.2-136,251.5-131.7,257.4-130.6z"/>
	<g>
		<g>
			<g>
				<path d="M313.3-40.4c1.7-4.9,1.8-10.8-0.5-17.4c3.6-1.2,7.7-1.9,12.2-2c-15.7-3.8-26.2,5.5-36,15.1c-7.6,7.6-16.2,12.6-24.8,7.5
					c3.8,5.2,11.2,5.9,14.9,4.2c5.5,4.2,11.3,5.9,16.6,5.6c4-0.2,7.7-1.5,10.6-3.8C309.5-33.4,311.9-36.6,313.3-40.4z"/>
				<linearGradient id="SVGID_10_" gradientUnits="userSpaceOnUse" x1="296.9756" y1="-12.8035" x2="296.9756" y2="-78.0156">
					<stop  offset="0" style="stop-color:#431908"/>
					<stop  offset="1" style="stop-color:#000000"/>
				</linearGradient>
				<path class="st20" d="M286.2-37.9c1-0.9,2-2,3.2-3c1.2,2,3.2,3.5,5.6,4c4.1,0.8,7.8-2,8.2-6.2c0.3-2.9-1.1-5.8-3.5-7.5
					c1.1-0.9,2.3-1.8,3.6-2.6c3,2.7,4.7,6.7,4.3,10.8c-0.7,6.6-6.5,11-13.1,9.8C291.2-33.2,288.2-35.2,286.2-37.9z"/>
				<path class="st18" d="M286.5-26.8c-1.1-0.4-2.3,0.3-2.7,1.4c-0.4,1.1,0.3,2.4,1.4,2.8c6.3,2.1,12.9,2,18.9-0.3
					c5.7-2.2,11-6.4,15.1-12.6c0.7-1,0.4-2.4-0.6-3c-1-0.7-2.3-0.4-3,0.6c-3.5,5.4-8,9-12.9,10.9C297.5-25.1,291.9-25,286.5-26.8z"
					/>
				<path class="st8" d="M292.1-37.1c1,0,1.9,0.8,2,1.8c0.1,1-0.7,1.8-1.7,1.8c-1,0-1.9-0.8-2-1.8C290.3-36.3,291.1-37.1,292.1-37.1
					L292.1-37.1z M303.8-51.6c2.1,0,4,1.7,4.1,3.8c0.2,2-1.5,3.8-3.6,3.8c-2.1,0-4-1.7-4.1-3.8C300-49.9,301.6-51.6,303.8-51.6z"/>
			</g>
			<path class="st21" d="M313.1-61.2c2.8-0.3,4.1-4.9-3.2-4.3c-12.4,1-26.4,23.9-41.1,24.9C284-36.6,297.1-59.7,313.1-61.2z"/>
		</g>
		<g>
			<g>
				<path d="M177.1-40.4c-1.7-4.9-1.8-10.8,0.5-17.4c-3.6-1.2-7.7-1.9-12.2-2c15.7-3.8,26.2,5.5,36,15.1c7.6,7.6,16.2,12.6,24.8,7.5
					c-3.8,5.2-11.2,5.9-14.9,4.2c-5.5,4.2-11.3,5.9-16.6,5.6c-4-0.2-7.7-1.5-10.6-3.8C180.8-33.4,178.4-36.6,177.1-40.4z"/>
				<linearGradient id="SVGID_11_" gradientUnits="userSpaceOnUse" x1="192.7258" y1="-7.7388" x2="193.8576" y2="-72.5752">
					<stop  offset="0" style="stop-color:#431908"/>
					<stop  offset="1" style="stop-color:#000000"/>
				</linearGradient>
				<path class="st22" d="M204-37.9c-1-0.9-2-2-3.2-3c-1.2,2-3.2,3.5-5.6,4c-4.1,0.8-7.8-2-8.2-6.2c-0.3-2.9,1.1-5.8,3.5-7.5
					c-1.1-0.9-2.3-1.8-3.6-2.6c-3,2.7-4.7,6.7-4.3,10.8c0.7,6.6,6.5,11,13.1,9.8C199.1-33.2,202.1-35.2,204-37.9z"/>
				<path class="st18" d="M203.8-26.8c1.1-0.4,2.3,0.3,2.7,1.4c0.4,1.1-0.3,2.4-1.4,2.8c-6.3,2.1-12.9,2-18.9-0.3
					c-5.7-2.2-11-6.4-15.1-12.6c-0.7-1-0.4-2.4,0.6-3c1-0.7,2.3-0.4,3,0.6c3.5,5.4,8,9,12.9,10.9C192.8-25.1,198.4-25,203.8-26.8z"
					/>
				<path class="st8" d="M198.2-37.1c-1,0-1.9,0.8-2,1.8c0,1,0.7,1.8,1.7,1.8c1,0,1.9-0.8,2-1.8C200-36.3,199.2-37.1,198.2-37.1
					L198.2-37.1z M186.6-51.6c-2.1,0-4,1.7-4.1,3.8c-0.2,2,1.5,3.8,3.6,3.8c2.1,0,4-1.7,4.1-3.8C190.3-49.9,188.6-51.6,186.6-51.6z"
					/>
			</g>
			<path class="st21" d="M177.2-61.2c-2.8-0.3-4.1-4.9,3.2-4.3c12.4,1,26.4,23.9,41.1,24.9C206.3-36.6,193.3-59.7,177.2-61.2z"/>
		</g>
	</g>
	<path class="st8" d="M202.4,48.8c1.6,0.4,1.1,2-0.2,1.6c-32.5-8.4-76.9-8.6-108.3,0C123.9,39.4,171,40.9,202.4,48.8L202.4,48.8z
		 M287.9,48.8c-1.6,0.4-1.1,2,0.2,1.6c32.5-8.4,76.9-8.6,108.3,0C366.4,39.4,319.3,40.9,287.9,48.8L287.9,48.8z M290.8,45.1
		c26.8-11.9,68.5-20.4,96.7-15.2c-29.2-2.8-68.6,4.1-96.3,16.6C290.1,47.1,289.5,45.8,290.8,45.1L290.8,45.1z M285.5,52.6
		c32.2-2.3,79,4.5,106.7,20.7c-29.6-13.9-73.2-21.6-106.7-19.1C284.1,54.3,283.9,52.7,285.5,52.6L285.5,52.6z M297.1,40.2
		c18-14.2,48-29,70.3-30.6c-22.6,3.7-51,16.7-69.7,31.6C296.9,41.7,296.2,40.9,297.1,40.2L297.1,40.2z M282.4,55.5
		c-1.3-0.2-1.4,1.1-0.3,1.2c26.6,2.7,59.8,14.8,81.2,29.8C343.7,70.1,308,58.2,282.4,55.5L282.4,55.5z M199.5,45.1
		C172.7,33.3,131,24.7,102.7,30c29.2-2.8,68.6,4.1,96.3,16.6C200.2,47.1,200.8,45.8,199.5,45.1L199.5,45.1z M204.8,52.6
		c-32.2-2.3-79,4.5-106.7,20.7c29.6-13.9,73.2-21.6,106.7-19.1C206.2,54.3,206.4,52.7,204.8,52.6L204.8,52.6z M193.2,40.2
		c-18-14.2-48-29-70.3-30.6c22.6,3.7,51.1,16.7,69.7,31.6C193.4,41.7,194.1,40.9,193.2,40.2L193.2,40.2z M207.9,55.5
		c1.3-0.2,1.4,1.1,0.3,1.2c-26.6,2.7-59.8,14.8-81.2,29.8C146.6,70.1,182.3,58.2,207.9,55.5z"/>
</g>
</svg>
